<svg xmlns="http://www.w3.org/2000/svg" viewBox="0 0 512 512" width="512" height="512"><g fill="#2c93f4"><path d="M164.387 116.918l15.501 3.725c8.484-35.297 39.782-59.95 76.109-59.95V44.746c-43.723 0-81.399 29.676-91.61 72.172z"/><path d="M371.316 353.894h-45.279l.008-76.032h66.9c49.129 0 89.093-39.939 89.093-89.024 0-49.132-39.967-89.101-89.093-89.101-1.18 0-2.388.028-3.628.087C372.087 40.709 318.209 0 255.996 0c-62.188 0-116.078 40.707-133.35 99.822a80.932 80.932 0 0 0-3.584-.082c-49.129 0-89.101 39.969-89.101 89.101 0 49.085 39.972 89.024 89.101 89.024h66.906v76.032h-45.286v-47.386H29.961v110.72h110.72v-47.388h61.23V261.921h-82.852c-40.341 0-73.157-32.783-73.157-73.08 0-40.34 32.819-73.157 73.157-73.157 2.652 0 5.476.179 8.637.553l7.032.832 1.654-6.886c13.338-55.485 62.528-94.236 119.613-94.236 57.114 0 106.284 38.751 119.578 94.231l1.649 6.876 7.022-.814c3.215-.374 6.067-.558 8.699-.558 40.333 0 73.147 32.819 73.147 73.157 0 40.297-32.814 73.08-73.147 73.08h-82.844l-.008 107.922h61.225v47.391h110.72v-110.72h-110.72v47.382zm-246.581 47.394h-78.83v-78.83h78.83v31.439H85.321v15.946h39.414v31.445zm341.355-78.83v78.83h-78.83v-31.447h39.419v-15.946H387.26v-31.437h78.83z"/><path d="M263.983 261.914h-15.946v139.374h-47.398V512h110.72V401.288h-47.375V261.914zm31.432 155.317v78.822h-78.83v-78.822h31.452v39.396h15.946v-39.396h31.432zM216.14 208.358h15.944v15.946H216.14zm31.897 0h15.946v15.946h-15.946zm31.872 0h15.946v15.946h-15.946z"/></g></svg>